<svg baseProfile="full" height="600" version="1.1" width="800" xmlns="http://www.w3.org/2000/svg" xmlns:ev="http://www.w3.org/2001/xml-events" xmlns:xlink="http://www.w3.org/1999/xlink"><defs /><rect fill="white" height="600" width="800" x="0" y="0" /><circle cx="222.0" cy="290.0" fill="#90EE90" r="40.0" stroke="black" stroke-width="2" /><text dominant-baseline="middle" fill="black" font-family="Arial, sans-serif" font-size="12px" font-weight="bold" text-anchor="middle" x="222.0" y="290.0">CO2</text><text fill="black" font-family="Arial, sans-serif" font-size="14px" text-anchor="middle" x="222.0" y="350.0">CO2</text><circle cx="394.0" cy="290.0" fill="#F0F0F0" r="40.0" stroke="black" stroke-width="2" /><text dominant-baseline="middle" fill="black" font-family="Arial, sans-serif" font-size="12px" font-weight="bold" text-anchor="middle" x="394.0" y="290.0">H2O</text><text fill="black" font-family="Arial, sans-serif" font-size="14px" text-anchor="middle" x="394.0" y="350.0">H2O</text><circle cx="566.0" cy="290.0" fill="#F0F0F0" r="40.0" stroke="black" stroke-width="2" /><text dominant-baseline="middle" fill="black" font-family="Arial, sans-serif" font-size="12px" font-weight="bold" text-anchor="middle" x="566.0" y="290.0">C6H12O6</text><text fill="black" font-family="Arial, sans-serif" font-size="14px" text-anchor="middle" x="566.0" y="350.0">C6H12O6</text><circle cx="738.0" cy="290.0" fill="#F0F0F0" r="40.0" stroke="black" stroke-width="2" /><text dominant-baseline="middle" fill="black" font-family="Arial, sans-serif" font-size="12px" font-weight="bold" text-anchor="middle" x="738.0" y="290.0">O2</text><text fill="black" font-family="Arial, sans-serif" font-size="14px" text-anchor="middle" x="738.0" y="350.0">O2</text><line marker-end="url(#arrowhead)" stroke="black" stroke-width="2" x1="252.0" x2="516.0" y1="320.0" y2="320.0" /><polygon fill="black" points="516.0,320.0 507.33974596215563,315.0 507.33974596215563,325.0" /><text fill="black" font-family="Arial, sans-serif" font-size="12px" text-anchor="middle" x="384.0" y="310.0">CO2 assimilation</text><line marker-end="url(#arrowhead)" stroke="black" stroke-width="2" x1="444.0" x2="516.0" y1="320.0" y2="320.0" /><polygon fill="black" points="516.0,320.0 507.33974596215563,315.0 507.33974596215563,325.0" /><text fill="black" font-family="Arial, sans-serif" font-size="12px" text-anchor="middle" x="480.0" y="310.0">Water usage</text><line marker-end="url(#arrowhead)" stroke="black" stroke-width="2" x1="636.0" x2="708.0" y1="320.0" y2="320.0" /><polygon fill="black" points="708.0,320.0 699.3397459621556,315.0 699.3397459621556,325.0" /><text fill="black" font-family="Arial, sans-serif" font-size="12px" text-anchor="middle" x="672.0" y="310.0">Oxygen release</text><line marker-end="url(#arrowhead)" stroke="black" stroke-width="2" x1="252.0" x2="708.0" y1="320.0" y2="320.0" /><polygon fill="black" points="708.0,320.0 699.3397459621556,315.0 699.3397459621556,325.0" /><text fill="black" font-family="Arial, sans-serif" font-size="12px" text-anchor="middle" x="480.0" y="310.0">Byproduct flow</text></svg>
